<svg width="99" height="19" viewBox="0 0 99 19" fill="none" xmlns="http://www.w3.org/2000/svg">
    <path d="M19.8659 5.30778V5.86913C19.8659 11.522 15.5297 18 7.59514 18C5.25275 18.005 2.96011 17.3317 1 16.0633C1.34041 16.109 1.68379 16.1297 2.0273 16.1251C3.96895 16.1303 5.85601 15.4897 7.38514 14.3063C6.48309 14.2931 5.60818 13.9991 4.88475 13.466C4.16132 12.9329 3.62619 12.1878 3.35541 11.3367C3.6241 11.393 3.89804 11.4213 4.1727 11.4209C4.55624 11.421 4.93805 11.37 5.30784 11.2693C4.33082 11.0767 3.45184 10.5543 2.82132 9.79137C2.1908 9.02849 1.84792 8.0726 1.85135 7.08726V7.03113C2.44911 7.36139 3.11928 7.54251 3.80378 7.5588C2.89261 6.96577 2.24478 6.051 1.99266 5.00139C1.74054 3.95179 1.90316 2.84658 2.4473 1.91159C3.5315 3.23048 4.8842 4.30894 6.41746 5.07685C7.95072 5.84476 9.63021 6.28492 11.3468 6.36873C11.2618 6.05012 11.2217 5.72144 11.2276 5.39198C11.1956 4.52127 11.4357 3.66197 11.9153 2.93109C12.3948 2.20022 13.0905 1.63328 13.9075 1.30747C14.7245 0.981663 15.6232 0.912822 16.4812 1.11032C17.3392 1.30782 18.1148 1.76206 18.7024 2.41119C19.6683 2.21841 20.5948 1.86741 21.4438 1.37269C21.1218 2.37828 20.437 3.2315 19.5197 3.76967C20.3765 3.6529 21.2119 3.41468 22 3.06236C21.4288 3.93001 20.7062 4.69031 19.8659 5.30778Z" stroke="#999999" stroke-width="2" stroke-linecap="round" stroke-linejoin="round"/>
    <path fill-rule="evenodd" clip-rule="evenodd" d="M61.9615 3.14687C62.2493 1.76352 60.8712 0.613923 59.5352 1.12287L43.1582 7.36138C41.6662 7.92973 41.5997 9.98674 43.0519 10.6475L46.6184 12.2705L48.315 18.1251C48.4031 18.4292 48.6479 18.6647 48.9584 18.744C49.269 18.8233 49.5989 18.7347 49.8257 18.5111L52.4392 15.9343L56.1001 18.6415C57.1628 19.4272 58.6934 18.8549 58.9603 17.5719L61.9615 3.14687ZM43.8107 9.02664L60.1878 2.78813L57.1865 17.2133L52.8974 14.0416C52.537 13.7751 52.0327 13.8104 51.7141 14.1246L50.5947 15.2282L50.931 13.4045L57.5212 6.90705C57.8419 6.59084 57.8758 6.08944 57.6005 5.73407C57.3251 5.37868 56.8257 5.279 56.4318 5.50087L47.3307 10.6283L43.8107 9.02664ZM48.4404 12.0593L48.9894 13.9538L49.2001 12.8108C49.2331 12.6322 49.3205 12.4677 49.4507 12.3393L51.4605 10.3579L48.4404 12.0593Z" fill="#999999"/>
    <path d="M85.8436 6.37034C85.9312 5.67758 86.8315 4.73604 87.546 4.84051L87.5449 4.83937C88.2402 4.97151 88.7907 6.16834 89.1011 6.70649C89.321 7.09696 89.1782 7.49256 88.973 7.6595C88.6963 7.88253 88.2636 8.19029 88.3544 8.49929C88.5158 9.0486 90.4322 10.965 91.3748 11.5098C91.7315 11.716 91.9902 11.1721 92.2111 10.8935C92.3717 10.6792 92.7676 10.5511 93.1572 10.7626C93.739 11.1015 94.2871 11.4952 94.7939 11.9385C95.047 12.1501 95.1064 12.4628 94.9311 12.7933C94.6221 13.3753 93.7286 14.1429 93.08 13.9869C91.9472 13.7145 87.3659 11.9385 85.8944 6.79339C85.8116 6.54998 85.8325 6.45797 85.8436 6.37034Z" fill="#999999"/>
    <path fill-rule="evenodd" clip-rule="evenodd" d="M90.4322 17.8643C89.4942 17.8643 88.9752 17.7637 88.1325 17.4811L86.5184 18.2881C85.4991 18.7978 84.2997 18.0565 84.2997 16.9168V15.1814C82.6489 13.6421 82 11.8673 82 9.43217C82 4.77521 85.7752 1 90.4322 1C95.0891 1 98.8643 4.77521 98.8643 9.43217C98.8643 14.0891 95.0891 17.8643 90.4322 17.8643ZM85.8328 14.5147L85.3452 14.0601C84.0627 12.8642 83.5331 11.5273 83.5331 9.43217C83.5331 5.62193 86.6219 2.53312 90.4322 2.53312C94.2424 2.53312 97.3312 5.62193 97.3312 9.43217C97.3312 13.2424 94.2424 16.3312 90.4322 16.3312C89.6766 16.3312 89.3222 16.263 88.62 16.0275L88.0163 15.8251L85.8328 16.9168V14.5147Z" fill="#999999"/>
</svg>
